<?xml version="1.0" encoding="UTF-8"?>
<!-- Generator: visioncortex VTracer 0.6.3 -->
<svg version="1.1" xmlns="http://www.w3.org/2000/svg" width="1280" height="1280">
<path d="M0 0 C2.64 1.17 2.64 1.17 5.25 2.75 C8.7 4.74 12.03 6.52 15.75 7.94 C24.15 11.15 32.31 15.08 40.31 19.19 C43.97 21.05 47.75 22.51 51.56 24 C53.77 24.91 55.88 25.9 58 27 C60.85 28.47 63.71 29.71 66.69 30.88 C74.72 34.02 82.51 37.71 90.19 41.62 C94.03 43.57 97.92 45.2 101.93 46.75 C109.04 49.64 116 52.86 123 56 C123 56.66 123 57.32 123 58 C123.83 58.1 124.67 58.2 125.53 58.3 C129.48 59.1 132.92 60.53 136.56 62.19 C137.27 62.5 137.97 62.82 138.69 63.14 C144.04 65.54 149.35 68 154.66 70.47 C158.38 72.17 162.12 73.81 165.88 75.44 C175.12 79.46 184.34 83.58 193.31 88.19 C195.95 89.53 198.62 90.67 201.38 91.75 C212.65 96.17 223.64 101.33 234.59 106.49 C238.75 108.45 242.95 110.28 247.19 112.06 C252.65 114.37 257.92 116.94 263.21 119.63 C266.54 121.26 269.94 122.61 273.39 123.95 C277.48 125.6 281.45 127.5 285.45 129.36 C289.28 131.13 293.13 132.82 297 134.5 C305.83 138.34 314.61 142.25 323.19 146.62 C327.25 148.69 331.39 150.39 335.63 152.04 C337.82 152.93 339.9 153.92 342 155 C344.75 156.41 347.5 157.63 350.38 158.75 C364.53 164.29 378.62 170.66 392.12 177.62 C395.42 179.3 398.69 180.66 402.19 181.88 C410.73 184.86 418.9 188.87 426.94 193 C431.39 195.27 435.99 197.21 440.58 199.19 C444.8 201.01 448.97 202.91 453.14 204.85 C461.22 208.6 469.42 212.05 477.63 215.5 C484.35 218.35 490.92 221.37 497.41 224.72 C500.55 226.27 503.75 227.54 507.02 228.8 C511.16 230.47 515.23 232.26 519.31 234.06 C520.48 234.57 520.48 234.57 521.67 235.1 C525.62 236.85 529.3 238.75 533 241 C534.59 241.68 536.19 242.33 537.81 242.94 C540.96 244.16 544 245.45 547 247 C549.94 248.52 552.91 249.8 556 251 C559.09 252.2 562.06 253.48 565 255 C567.81 256.44 570.62 257.67 573.56 258.81 C578.44 260.72 583.17 262.91 587.91 265.15 C592.91 267.51 597.94 269.77 603 272 C609.84 275.02 616.62 278.14 623.38 281.36 C627.85 283.39 632.44 285.17 637 287 C637 519.65 637 752.3 637 992 C630.26 995.37 623.54 998.65 616.69 1001.75 C615.74 1002.18 614.8 1002.61 613.82 1003.05 C606.4 1006.4 598.92 1009.62 591.43 1012.81 C583.86 1016.03 576.43 1019.49 569 1023 C563.89 1025.35 558.77 1027.66 553.62 1029.94 C548.86 1032.05 544.13 1034.24 539.41 1036.44 C536.88 1037.59 534.36 1038.73 531.82 1039.86 C526.32 1042.29 520.85 1044.8 515.38 1047.31 C514.32 1047.8 513.26 1048.28 512.17 1048.78 C506.35 1051.45 500.54 1054.15 494.75 1056.88 C489.52 1059.32 484.25 1061.59 478.91 1063.78 C476.01 1065 473.16 1066.29 470.31 1067.62 C462.58 1071.24 454.76 1074.64 446.93 1078.04 C442.54 1079.96 438.16 1081.87 433.89 1084.05 C428.33 1086.9 422.54 1089.22 416.78 1091.64 C412.05 1093.65 407.42 1095.74 402.85 1098.08 C399.96 1099.52 396.97 1100.74 394 1102 C391.56 1103.14 389.12 1104.28 386.69 1105.44 C381.79 1107.74 376.88 1109.89 371.84 1111.85 C361.49 1116.04 351.36 1120.8 341.27 1125.57 C337.53 1127.32 333.76 1128.95 329.94 1130.5 C324.27 1132.82 318.84 1135.53 313.39 1138.3 C306.18 1141.92 298.84 1145.09 291.33 1148.04 C289.16 1148.93 287.09 1149.92 285 1151 C282.27 1152.4 279.55 1153.59 276.69 1154.69 C270.66 1157.04 264.87 1159.85 259.04 1162.65 C251.86 1166.1 244.63 1169.37 237.25 1172.38 C229.43 1175.62 221.77 1179.19 214.14 1182.84 C205.35 1187.03 196.49 1190.98 187.53 1194.78 C179.26 1198.3 171.11 1202.05 163 1205.9 C154.6 1209.87 146.17 1213.72 137.65 1217.41 C132.74 1219.55 127.87 1221.77 123 1224 C121.21 1224.81 119.42 1225.63 117.62 1226.44 C114.64 1227.79 111.67 1229.16 108.7 1230.54 C99.06 1235.04 99.06 1235.04 95.06 1236.44 C90.65 1238.01 86.53 1240.19 82.35 1242.31 C74.5 1246.29 66.53 1249.82 58.33 1253.04 C55.49 1254.21 52.78 1255.6 50.05 1257.01 C47.82 1258.09 45.56 1258.98 43.25 1259.88 C39.38 1261.38 35.7 1263.11 32 1265 C28.46 1266.81 24.96 1268.47 21.25 1269.88 C18.07 1271.08 15.05 1272.46 12.03 1274.02 C11.33 1274.39 10.62 1274.75 9.89 1275.13 C8.49 1275.86 7.1 1276.6 5.71 1277.36 C1.66 1279.48 -1.32 1280.67 -6 1280 C-8.64 1278.83 -8.64 1278.83 -11.25 1277.25 C-14.7 1275.26 -18.03 1273.48 -21.75 1272.06 C-30.15 1268.85 -38.31 1264.92 -46.31 1260.81 C-48.95 1259.47 -51.62 1258.33 -54.38 1257.25 C-65.99 1252.7 -77.32 1247.36 -88.61 1242.05 C-94.48 1239.3 -100.36 1236.59 -106.25 1233.88 C-107.34 1233.37 -108.43 1232.87 -109.55 1232.35 C-112.7 1230.9 -115.85 1229.45 -119 1228 C-120.01 1227.53 -121.03 1227.07 -122.07 1226.59 C-123.03 1226.15 -124 1225.71 -124.99 1225.25 C-125.84 1224.87 -126.69 1224.48 -127.56 1224.08 C-130 1223 -132.45 1222.02 -134.94 1221.06 C-138.73 1219.58 -142.32 1217.86 -145.94 1216 C-149.7 1214.08 -153.38 1212.43 -157.38 1211.06 C-163.09 1209.09 -168.37 1206.4 -173.73 1203.66 C-177.76 1201.61 -181.85 1199.78 -186 1198 C-188.54 1196.9 -191.08 1195.79 -193.62 1194.69 C-194.67 1194.23 -194.67 1194.23 -195.73 1193.77 C-200.77 1191.56 -205.75 1189.26 -210.72 1186.91 C-216.93 1183.99 -223.22 1181.25 -229.5 1178.5 C-237.36 1175.06 -245.18 1171.54 -252.94 1167.88 C-258.41 1165.32 -263.96 1162.92 -269.5 1160.5 C-278.73 1156.46 -287.9 1152.32 -297 1148 C-304.44 1144.47 -311.86 1141 -319.54 1138.03 C-323.39 1136.42 -327.06 1134.49 -330.75 1132.56 C-334.25 1130.88 -337.8 1129.46 -341.41 1128.04 C-345.41 1126.43 -349.33 1124.66 -353.25 1122.88 C-354.1 1122.49 -354.95 1122.11 -355.82 1121.71 C-360.43 1119.63 -365.03 1117.53 -369.62 1115.44 C-371.5 1114.58 -373.37 1113.73 -375.25 1112.88 C-376.17 1112.45 -377.1 1112.03 -378.05 1111.6 C-384.18 1108.81 -390.34 1106.08 -396.52 1103.4 C-401.6 1101.19 -406.63 1098.87 -411.66 1096.53 C-415.42 1094.81 -419.21 1093.15 -423 1091.5 C-431.81 1087.67 -440.58 1083.78 -449.12 1079.38 C-452.42 1077.7 -455.69 1076.34 -459.19 1075.12 C-467.74 1072.14 -475.89 1068.1 -483.95 1063.99 C-487.91 1062 -491.95 1060.33 -496.06 1058.69 C-506.08 1054.62 -515.84 1050.14 -525.47 1045.22 C-530.93 1042.44 -536.31 1040.07 -542.1 1038.09 C-546.26 1036.53 -550.23 1034.62 -554.23 1032.71 C-558.53 1030.67 -562.86 1028.77 -567.25 1026.94 C-571.55 1025.12 -575.63 1023.17 -579.69 1020.88 C-584.02 1018.43 -588.32 1016.73 -593.01 1015.11 C-597.11 1013.59 -601.02 1011.72 -604.96 1009.85 C-610.63 1007.15 -616.37 1004.6 -622.13 1002.1 C-629.24 998.99 -636.02 995.49 -643 992 C-643 759.35 -643 526.7 -643 287 C-639.04 285.35 -635.08 283.7 -631 282 C-628.43 280.83 -625.86 279.65 -623.31 278.44 C-619.43 276.61 -615.56 274.78 -611.62 273.06 C-607.99 271.47 -604.41 269.78 -600.83 268.08 C-594.81 265.22 -588.81 262.45 -582.59 260.06 C-577.82 258.11 -573.18 255.85 -568.52 253.65 C-565.9 252.42 -563.28 251.22 -560.62 250.06 C-557.18 248.55 -553.78 246.95 -550.38 245.33 C-542.11 241.39 -533.76 237.69 -525.31 234.15 C-520.69 232.2 -516.19 230.13 -511.73 227.86 C-509.61 226.81 -507.46 225.95 -505.25 225.12 C-501.38 223.62 -497.7 221.89 -494 220 C-489.66 217.79 -485.31 215.88 -480.77 214.13 C-475.93 212.16 -471.24 209.88 -466.52 207.66 C-461.2 205.15 -455.82 202.79 -450.43 200.45 C-442.39 196.96 -434.41 193.36 -426.47 189.63 C-419.45 186.34 -412.38 183.16 -405.29 180.02 C-402.83 178.92 -400.38 177.81 -397.94 176.69 C-393.4 174.62 -388.83 172.61 -384.25 170.62 C-378.17 167.98 -372.16 165.24 -366.16 162.42 C-362.18 160.55 -358.18 158.73 -354.16 156.95 C-347.49 154 -340.87 150.94 -334.25 147.88 C-329.86 145.85 -325.45 143.9 -321 142 C-319.19 141.17 -317.37 140.34 -315.56 139.5 C-312.47 138.08 -309.4 136.74 -306.19 135.62 C-302.35 134.24 -298.76 132.41 -295.12 130.56 C-290.35 128.13 -285.56 125.94 -280.55 124.02 C-275.27 121.91 -270.15 119.41 -265 117 C-259.77 114.58 -254.57 112.19 -249.19 110.12 C-244.57 108.32 -240.22 106.12 -235.82 103.85 C-229.92 100.88 -223.86 98.34 -217.75 95.84 C-213.36 94.04 -209.1 92.09 -204.87 89.93 C-202.09 88.55 -199.24 87.37 -196.38 86.19 C-191.4 84.08 -186.56 81.83 -181.75 79.38 C-176.98 76.95 -172.22 74.81 -167.23 72.89 C-164.45 71.78 -161.82 70.43 -159.16 69.05 C-156.96 67.98 -154.73 67.07 -152.45 66.18 C-146.85 63.96 -141.33 61.59 -135.81 59.19 C-134.81 58.75 -133.81 58.32 -132.78 57.87 C-119.63 52.24 -119.63 52.24 -106.86 45.81 C-105 45 -105 45 -101 45 C-101 44.34 -101 43.68 -101 43 C-100.49 42.8 -99.97 42.61 -99.45 42.41 C-87.16 37.61 -75.18 32.06 -63.27 26.43 C-59.53 24.68 -55.76 23.05 -51.94 21.5 C-46.27 19.18 -40.84 16.47 -35.39 13.7 C-28.12 10.05 -20.73 6.85 -13.15 3.91 C-10.83 3 -10.83 3 -8.25 1.25 C-5.27 -0.4 -3.38 -0.27 0 0 Z " fill="#000000" transform="translate(643,0)"/>
</svg>
