<svg xmlns="http://www.w3.org/2000/svg" xmlns:xlink="http://www.w3.org/1999/xlink" viewBox="0 0 784 820" width="784" height="820" preserveAspectRatio="xMidYMid meet" style="width: 100%; height: 100%; transform: translate3d(0px, 0px, 0px); content-visibility: visible;"><defs><clipPath id="__lottie_element_16"><rect width="784" height="820" x="0" y="0"></rect></clipPath><g id="__lottie_element_29"><g transform="matrix(1,0,0,1,392,443.7991638183594)" opacity="1" style="display: block;"><g opacity="1" transform="matrix(1,0,0,1,-14,84)"><path fill="rgb(253,251,251)" fill-opacity="1" d=" M378.23834228515625,-108.41414642333984 C479.50567626953125,-64.73982238769531 365.0394287109375,259.1934814453125 365.0394287109375,259.1934814453125 C365.0394287109375,259.1934814453125 -350.9605712890625,259.1934814453125 -350.9605712890625,259.1934814453125 C-350.9605712890625,259.1934814453125 -459.5876159667969,-62.28211212158203 -358.8799133300781,-108.65428924560547 C-169.69552612304688,-195.76710510253906 192.57363891601562,-188.487548828125 378.23834228515625,-108.41414642333984z"></path><path stroke-linecap="butt" stroke-linejoin="miter" fill-opacity="0" stroke-miterlimit="4" stroke="rgb(223,25,25)" stroke-opacity="1" stroke-width="5.4" d=" M378.23834228515625,-108.41414642333984 C479.50567626953125,-64.73982238769531 365.0394287109375,259.1934814453125 365.0394287109375,259.1934814453125 C365.0394287109375,259.1934814453125 -350.9605712890625,259.1934814453125 -350.9605712890625,259.1934814453125 C-350.9605712890625,259.1934814453125 -459.5876159667969,-62.28211212158203 -358.8799133300781,-108.65428924560547 C-169.69552612304688,-195.76710510253906 192.57363891601562,-188.487548828125 378.23834228515625,-108.41414642333984z"></path></g></g></g><filter id="__lottie_element_32" filterUnits="objectBoundingBox" x="0%" y="0%" width="100%" height="100%"><feComponentTransfer in="SourceGraphic"><feFuncA type="table" tableValues="1.0 0.0"></feFuncA></feComponentTransfer></filter><mask id="__lottie_element_29_2" mask-type="alpha"><g filter="url(#__lottie_element_32)"><rect width="784" height="820" x="0" y="0" fill="#ffffff" opacity="0"></rect><use xlink:href="#__lottie_element_29"></use></g></mask></defs><g clip-path="url(#__lottie_element_16)"><g mask="url(#__lottie_element_29_2)" style="display: block;"><g transform="matrix(1,0,0,1,392,443.7991638183594)" opacity="1"><g opacity="1" transform="matrix(1,0,0,1,0,0)"><path stroke-linecap="round" stroke-linejoin="round" fill-opacity="0" stroke="rgb(0,0,0)" stroke-opacity="1" stroke-width="40" d=" M223.00631713867188,-160.50514221191406 C223.00631713867188,-160.50514221191406 -220.07081604003906,-160.50514221191406 -220.07081604003906,-160.50514221191406 C-220.07081604003906,-160.50514221191406 -258.53900146484375,252.98699951171875 -258.53900146484375,252.98699951171875 C-258.53900146484375,296.98699951171875 -222.53900146484375,332.98699951171875 -178.53900146484375,332.98699951171875 C-178.53900146484375,332.98699951171875 178.53900146484375,332.98699951171875 178.53900146484375,332.98699951171875 C222.53900146484375,332.98699951171875 258.53900146484375,296.98699951171875 258.53900146484375,252.98699951171875 C258.53900146484375,252.98699951171875 223.00631713867188,-160.50514221191406 223.00631713867188,-160.50514221191406z"></path></g></g></g><g transform="matrix(1,0,0,1,392,443.7991638183594)" opacity="1" style="display: block;"><g opacity="1" transform="matrix(1,0,0,1,0,0)"><path stroke-linecap="round" stroke-linejoin="round" fill-opacity="0" stroke="rgb(0,0,0)" stroke-opacity="1" stroke-width="40" d=" M352.43035888671875,-21.86911392211914 C352.43035888671875,-21.86911392211914 -352.86602783203125,-21.86911392211914 -352.86602783203125,-21.86911392211914 C-352.86602783203125,-21.86911392211914 -285.8167419433594,252.98699951171875 -285.8167419433594,252.98699951171875 C-270.3836975097656,291.7188720703125 -255.50196838378906,332.98699951171875 -199.65725708007812,332.98699951171875 C-199.65725708007812,332.98699951171875 199.65725708007812,332.98699951171875 199.65725708007812,332.98699951171875 C255.50196838378906,332.98699951171875 269.5037841796875,294.358642578125 285.8167419433594,252.98699951171875 C285.8167419433594,252.98699951171875 352.43035888671875,-21.86911392211914 352.43035888671875,-21.86911392211914z"></path></g></g><g transform="matrix(1,0,0,1,392,443.7991638183594)" opacity="1" style="display: block;"><g opacity="1" transform="matrix(1,0,0,1,0,0)"><path stroke-linecap="round" stroke-linejoin="round" fill-opacity="0" stroke="rgb(0,0,0)" stroke-opacity="1" stroke-width="40" d=" M352.96490478515625,-22.70258903503418 C352.96490478515625,-22.70258903503418 -352.50848388671875,-22.70258903503418 -352.50848388671875,-22.70258903503418 C-352.50848388671875,-22.70258903503418 -185.21682739257812,-84.88674926757812 -185.21682739257812,-84.88674926757812 C-185.21682739257812,-84.88674926757812 -219.2151641845703,-154.49801635742188 -219.2151641845703,-154.49801635742188 C-219.2151641845703,-154.49801635742188 224.876953125,-154.49801635742188 224.876953125,-154.49801635742188 C224.876953125,-154.49801635742188 185.23651123046875,-84.88674926757812 185.23651123046875,-84.88674926757812 C185.23651123046875,-84.88674926757812 352.96490478515625,-22.70258903503418 352.96490478515625,-22.70258903503418z"></path></g></g><g transform="matrix(1,0,0,1,392,436)" opacity="1" style="display: block;"><g opacity="1" transform="matrix(1,0,0,1,0,0)"><path stroke-linecap="round" stroke-linejoin="round" fill-opacity="0" stroke="rgb(0,0,0)" stroke-opacity="1" stroke-width="40" d=" M-185.37380981445312,122.83250427246094 C-185.7484588623047,119.76339721679688 -187.6863555908203,120.20515441894531 -185.9067840576172,122.20655059814453 C-184.9161834716797,204.02056884765625 -99.15583801269531,272.54254150390625 5.416963577270508,271.26904296875 C109.9907455444336,269.99554443359375 193.75294494628906,197.44949340820312 192.7897491455078,117.91700744628906 C191.13645935058594,115.90760803222656 192.5928955078125,114.52430725097656 192.29161071777344,117.61022186279297"></path></g></g><g style="display: none;" transform="matrix(1,0,0,1,392,436)" opacity="1"><g opacity="1" transform="matrix(1,0,0,1,0,0)"><path stroke-linecap="round" stroke-linejoin="round" fill-opacity="0" stroke="rgb(0,0,0)" stroke-opacity="1" stroke-width="40" d=" M-120.6500015258789,-115.69100189208984 C-120.8740005493164,-118.76499938964844 -120.98899841308594,-197.86900329589844 -120.98899841308594,-201 C-120.98899841308594,-270.5820007324219 -64.58200073242188,-326.989013671875 5,-326.989013671875 C74.58200073242188,-326.989013671875 130.98899841308594,-270.5820007324219 130.98899841308594,-201 C130.98899841308594,-197.86099243164062 130.87399291992188,-118.7490005493164 130.6479949951172,-115.66699981689453"></path></g></g><g style="display: none;" transform="matrix(1,0,0,1,392,436)" opacity="1"><g opacity="1" transform="matrix(1,0,0,1,0,0)"><path stroke-linecap="round" stroke-linejoin="round" fill-opacity="0" stroke="rgb(0,0,0)" stroke-opacity="1" stroke-width="40" d=" M-0.006979070138186216,-36.948795318603516 C-0.006979070138186216,-36.948795318603516 0,-36.17341613769531 0,-36.17341613769531"></path></g><g opacity="1" transform="matrix(1,0,0,1,0,0)"><path stroke-linecap="round" stroke-linejoin="round" fill-opacity="0" stroke="rgb(0,0,0)" stroke-opacity="1" stroke-width="40" d=" M0.08867530524730682,-36.23434066772461 C0.08867530524730682,-36.23434066772461 0,-36.17341613769531 0,-36.17341613769531 C0,-36.17341613769531 -0.17292211949825287,-36.15192413330078 -0.17292211949825287,-36.15192413330078"></path></g></g></g></svg>