
<svg version="1.0" xmlns="http://www.w3.org/2000/svg"
 width="512.000000pt" height="512.000000pt" viewBox="0 0 512.000000 512.000000"
 preserveAspectRatio="xMidYMid meet">

<g transform="translate(0.000000,512.000000) scale(0.100000,-0.100000)"
fill="#fill="#1667fe"" stroke="none">
<path d="M3234 5085 c-19 -47 -18 -52 16 -70 17 -9 30 -12 30 -7 0 4 6 16 13
26 11 15 17 16 40 5 27 -12 35 -41 19 -66 -4 -6 -32 -21 -62 -32 -58 -22 -73
-37 -85 -89 -6 -28 -4 -33 20 -42 14 -5 28 -10 30 -10 2 0 12 15 23 34 15 25
33 38 71 51 138 45 136 189 -3 224 -77 19 -95 15 -112 -24z"/>
<path d="M3495 4978 c-16 -40 -16 -43 1 -55 26 -19 52 -16 59 7 8 25 26 25 56
1 35 -28 16 -61 -51 -86 -55 -21 -84 -51 -94 -96 -5 -23 -1 -29 24 -39 17 -7
32 -11 33 -9 1 2 9 17 17 34 11 21 30 35 65 48 140 52 150 176 18 223 -21 7
-54 13 -74 14 -34 0 -38 -3 -54 -42z"/>
<path d="M2544 4971 c-44 -20 -106 -87 -102 -110 6 -28 26 -22 48 14 12 20 40
45 63 56 40 21 71 22 150 3 24 -6 28 -4 25 11 -7 41 -117 56 -184 26z"/>
<path d="M1956 4919 c-14 -11 -26 -26 -26 -34 0 -7 44 -58 99 -113 l99 -100 6
36 c11 71 -21 161 -74 206 -38 31 -68 33 -104 5z"/>
<path d="M2569 4875 c-29 -16 -59 -56 -59 -80 0 -26 24 -17 54 21 27 34 30 36
84 32 46 -2 57 0 60 13 6 30 -92 40 -139 14z"/>
<path d="M1598 4764 c-35 -18 -48 -43 -48 -88 0 -24 6 -38 19 -45 23 -13 351
-10 351 3 0 5 -22 31 -49 57 -79 76 -205 110 -273 73z"/>
<path d="M3166 4761 c-22 -25 -13 -58 20 -73 19 -9 28 -8 44 7 25 23 26 47 2
68 -24 22 -45 21 -66 -2z"/>
<path d="M2645 4726 c-29 -13 -73 -53 -64 -59 2 -2 29 -11 60 -20 183 -56 307
-214 334 -427 l5 -45 214 -165 c118 -91 211 -168 208 -172 -4 -3 -131 -49
-282 -102 l-276 -96 -374 0 c-217 0 -390 -4 -410 -10 -47 -13 -785 -572 -811
-613 -21 -36 -25 -107 -8 -140 25 -45 609 -816 630 -831 13 -9 38 -19 56 -22
l33 -6 0 -883 c0 -550 4 -903 10 -936 13 -69 53 -125 115 -164 42 -26 58 -30
119 -30 84 1 137 24 185 82 63 76 61 49 61 1025 l0 888 45 0 45 0 0 -908 0
-908 25 -51 c88 -176 333 -175 428 2 l22 40 5 1599 5 1598 383 134 c210 73
395 141 411 150 38 23 71 82 71 129 0 80 -4 83 -561 516 -291 225 -541 417
-556 424 -35 18 -88 18 -128 1z m-685 -1923 c0 -206 -4 -363 -9 -357 -38 41
-342 457 -339 464 4 10 329 258 341 259 4 1 7 -164 7 -366z"/>
<path d="M3430 4666 c-29 -36 13 -92 58 -75 16 6 22 16 22 38 0 44 -53 68 -80
37z"/>
<path d="M2400 4616 c-236 -53 -385 -281 -336 -514 19 -91 54 -156 119 -221
153 -154 401 -173 572 -43 296 225 196 691 -166 777 -75 17 -115 18 -189 1z
m348 -522 c22 -6 28 -29 14 -50 -5 -8 -24 -9 -71 -1 -84 13 -195 -4 -280 -43
-60 -29 -65 -29 -83 -14 -10 10 -18 21 -18 25 0 15 124 67 195 83 67 15 186
15 243 0z"/>
<path d="M1717 4429 c-36 -22 -43 -91 -11 -103 8 -3 52 3 97 14 45 11 94 20
110 20 37 0 34 20 -9 50 -28 19 -52 25 -103 28 -36 1 -74 -2 -84 -9z"/>
</g>
</svg>
